<svg xmlns="http://www.w3.org/2000/svg" viewBox="0 0 1920 1920"><defs><style>.cls-1{fill:#1a1a1a;}.cls-2{fill:#fff;}</style></defs><g id="BG"><circle class="cls-1" cx="960" cy="960" r="960"/></g><g id="Text"><path class="cls-2" d="M1330.9873,1393.8877l-84-50.39063q-37.21875-60-81-101.40625a402.56059,402.56059,0,0,0-100.20312-69l34.79687-97.20312q36,22.80468,75,63.60937t75,114l-16.79687,20.39063V705.09082H466.9873l-49.20312-86.40625H1428.19043l50.39062,86.40625h-138v686.40625Zm-439.20312-84q-72,0-133.79688-28.1875-61.80468-28.19532-113.40625-88.79688-51.60937-60.60937-94.20312-156-42.60937-95.39062-76.1875-229.8125l66-16.79687q43.17188,135.60938,95.39062,214.20312,52.19532,78.60937,114,111.59375a277.22486,277.22486,0,0,0,132.60938,33q78,0,127.79687-33.59375,49.78125-33.60937,47.39063-103.20312-1.19532-40.78125-17.39063-66-16.21875-25.19532-40.8125-37.20313a114.96859,114.96859,0,0,0-50.98437-12,109.88649,109.88649,0,0,0-37.20313,6,210.74832,210.74832,0,0,0-30,13.20313,264.01625,264.01625,0,0,0-30-96q-24-44.39062-72.60937-78t-130.1875-51.60938l193.1875-1.1875q26.39063,19.19532,54.60937,51.59375,28.19532,32.41407,48.59375,75Q964.97168,858.7002,964.9873,910.294q0,56.39063-31.8125,94.20312-31.80468,37.80469-92.98437,37.79688-60,0-97.8125-37.20313-37.80469-37.19531-37.79688-96,0-67.19531,46.20313-105.59375,46.19531-38.39062,123-38.40625,87.58593,0,147,36.60938,59.39063,36.60938,90,97.20312,30.58593,60.60938,30.59375,133.78125,0,67.21875-18,118.8125-18,51.60938-51.59375,87a218.55818,218.55818,0,0,1-79.20313,53.39063Q946.97168,1309.8877,891.78418,1309.8877Z"/></g></svg>